<svg width="161" height="63" viewBox="0 0 161 63" fill="none" xmlns="http://www.w3.org/2000/svg">
<path d="M7.95398 0.287109V12.4939H4.73022V0.287109H0V30.7619H4.73022V17.368H7.95398V30.7619H12.6842V0.287109H7.95398Z" fill="#F4F5F8"/>
<path d="M20.764 31.0899H19.8431C16.075 31.0899 14.0664 29.0833 14.0664 25.3147V19.2113H18.7554V24.5364C18.7554 25.9289 19.2154 26.6669 20.304 26.6669C21.3927 26.6669 21.8527 25.9289 21.8527 24.0451V23.3484C21.8527 21.1776 21.6438 20.3994 19.9274 18.2277L16.9135 14.4591C14.904 11.9189 14.3184 9.95354 14.3184 6.922V5.93931C14.3165 1.88475 16.4095 0 20.1354 0H21.0151C24.9078 0 26.4142 1.6794 26.4142 5.2848V10.2817H21.8508V5.89898C21.8508 4.87503 21.6419 4.09675 20.512 4.09675C19.3822 4.09675 19.1301 4.79345 19.1301 6.22718V6.8001C19.1301 8.52076 19.4646 9.46313 21.0554 11.4698L24.0702 15.2787C26.2053 17.982 26.8742 19.5386 26.8742 22.9789V23.9616C26.8742 28.4269 24.9068 31.089 20.7631 31.089" fill="#F4F5F8"/>
<path d="M38.9738 0.287109V4.71111H32.9451V12.6983H37.6763V17.3267H32.9451V26.1335H39.2249V30.7619H28.2158V0.287109H38.9738Z" fill="#F4F5F8"/>
<path d="M51.9925 25.028H48.5599L47.9322 30.7629H43.7041L47.5134 0.287109H53.1233L57.1837 30.7619H52.6212L51.9935 25.027L51.9925 25.028ZM51.4894 20.4811L50.2331 9.2167L49.0199 20.4811H51.4894Z" fill="#F4F5F8"/>
<path d="M62.6667 30.7619H57.9365V0.287109H65.5973C68.7367 0.287109 70.3275 1.59799 70.3275 4.99805V10.4047C70.3275 12.944 69.1143 13.9276 68.2757 14.2961C69.3222 14.7472 70.3275 15.5667 70.3275 17.6137V28.3042C70.3275 29.5336 70.5786 30.1065 70.7875 30.5575V30.7619H66.0985C65.8895 30.4347 65.6385 29.9021 65.6385 28.2639V19.0887C65.6385 17.7365 65.3874 17.1627 63.8809 17.1627H62.6658V30.7619H62.6667ZM62.6667 12.8212H63.9231C65.2216 12.8212 65.6394 12.0016 65.6394 10.6504V6.39051C65.6394 5.07963 65.3471 4.42418 63.9231 4.42418H62.6667V12.8212Z" fill="#F4F5F8"/>
<path d="M79.8721 4.71111V30.7619H75.1831V4.71111H71.207V0.287109H83.8491V4.71111H79.8721Z" fill="#F4F5F8"/>
<path d="M96.5755 25.028H93.1419L92.5132 30.7629H88.2852L92.0954 0.287109H97.7053L101.766 30.7619H97.2032L96.5755 25.027V25.028ZM96.0724 20.4811L94.816 9.2167L93.6028 20.4811H96.0724Z" fill="#F4F5F8"/>
<path d="M106.79 0.287109L110.851 16.631V0.287109H115.163V30.7619H111.311L106.79 13.2309V30.7619H102.521V0.287109H106.79Z" fill="#F4F5F8"/>
<path d="M116.919 0.287109H124.161C128.222 0.287109 129.478 2.54037 129.478 6.14484V24.6998C129.478 28.4271 128.055 30.7619 124.161 30.7619H116.919V0.287109ZM121.65 26.3389H122.781C124.205 26.3389 124.623 25.6018 124.623 23.9628V6.79934C124.623 5.03837 124.162 4.42418 122.99 4.42418H121.65V26.3389Z" fill="#F4F5F8"/>
<path d="M0 31.3809H7.24195C11.3023 31.3809 12.5577 33.6341 12.5577 37.2386V55.7935C12.5577 59.5208 11.1346 61.8557 7.24195 61.8557H0V31.3809ZM4.73022 57.4317H5.86103C7.28412 57.4317 7.7029 56.6946 7.7029 55.0556V37.8931C7.7029 36.1321 7.24291 35.5179 6.06994 35.5179H4.73022V57.4326V57.4317Z" fill="#F4F5F8"/>
<path d="M24.9924 31.3809V35.8039H18.9636V43.7921H23.6948V48.4205H18.9636V57.2263H25.2434V61.8557H14.2334V31.3809H24.9924Z" fill="#F4F5F8"/>
<path d="M32.7777 62.1827H31.8568C28.0887 62.1827 26.0801 60.1761 26.0801 56.4075V50.3041H30.7691V55.6292C30.7691 57.0217 31.23 57.7596 32.3177 57.7596C33.4054 57.7596 33.8673 57.0226 33.8673 55.1379V54.4412C33.8673 52.2704 33.6584 51.4921 31.9421 49.3205L28.9282 45.5519C26.9186 43.0126 26.3331 41.0463 26.3331 38.0157V37.0321C26.3331 32.9766 28.4251 31.0928 32.151 31.0928H33.0307C36.9243 31.0928 38.4308 32.7722 38.4308 36.3766V41.3736H33.8683V36.9908C33.8683 35.9669 33.6594 35.1886 32.5285 35.1886C31.3977 35.1886 31.1476 35.8853 31.1476 37.319V37.8919C31.1476 39.6126 31.4821 40.555 33.0729 42.5626L36.0868 46.3714C38.2219 49.0748 38.8917 50.6313 38.8917 54.0717V55.0553C38.8917 59.5197 36.9243 62.1818 32.7796 62.1818" fill="#F4F5F8"/>
<path d="M44.9607 31.3809H40.2305V61.8557H44.9607V31.3809Z" fill="#F4F5F8"/>
<path d="M51.1141 62.2653C48.3522 62.2653 46.5928 59.8489 46.5928 56.6945V37.6482C46.5928 34.2482 47.9325 31.0947 52.4116 31.0947H53.3326C58.3982 31.0947 58.9837 34.3307 58.9837 37.9352V41.0473H54.379V37.607C54.379 36.2548 54.0446 35.5178 52.8716 35.5178C51.8673 35.5178 51.4064 36.2548 51.4064 37.607V55.4249C51.4064 56.8586 51.9929 57.5956 52.955 57.5956C54.1692 57.5956 54.7135 56.7761 54.7135 55.6293V48.0106H52.5793V43.3419H59.1926V61.8555H56.5132C56.472 61.6914 56.0944 60.1761 55.7178 58.8653C55.3834 59.8892 53.7926 62.2653 51.4064 62.2653H51.1131H51.1141Z" fill="#F4F5F8"/>
<path d="M65.0954 31.3809L69.1558 47.7238V31.3809H73.4672V61.8557H69.6158L65.0954 44.3247V61.8557H60.8252V31.3809H65.0954Z" fill="#F4F5F8"/>
<path d="M85.8178 62.1827H84.8968C81.1287 62.1827 79.1201 60.1761 79.1201 56.4075V50.3041H83.8091V55.6292C83.8091 57.0217 84.2691 57.7596 85.3578 57.7596C86.4464 57.7596 86.9064 57.0226 86.9064 55.1379V54.4412C86.9064 52.2704 86.6975 51.4921 84.9811 49.3205L81.9673 45.5519C79.9577 43.0126 79.3722 41.0463 79.3722 38.0157V37.0321C79.3722 32.9766 81.4651 31.0928 85.1901 31.0928H86.0698C89.9624 31.0928 91.4689 32.7722 91.4689 36.3766V41.3736H86.9064V36.9908C86.9064 35.9669 86.6975 35.1886 85.5667 35.1886C84.4359 35.1886 84.1848 35.8853 84.1848 37.319V37.8919C84.1848 39.6126 84.5192 40.555 86.11 42.5626L89.1249 46.3714C91.259 49.0748 91.9289 50.6313 91.9289 54.0717V55.0553C91.9289 59.5197 89.9624 62.1818 85.8178 62.1818" fill="#F4F5F8"/>
<path d="M101.012 55.6705V48.5844H105.659V55.6293C105.659 58.9065 104.57 62.224 100.007 62.224H98.9605C94.1881 62.224 93.1416 58.8652 93.1416 55.7934V37.1972C93.1416 34.084 94.5225 31.0938 98.7928 31.0938H99.8804C105.072 31.0938 105.658 34.4525 105.658 37.4428V42.8908H101.011V37.5253C101.011 36.2145 100.592 35.5178 99.4204 35.5178C98.2484 35.5178 97.9552 36.1732 97.9552 37.5253V55.6302C97.9552 56.9823 98.4152 57.7194 99.4617 57.7194C100.592 57.7194 101.011 56.8998 101.011 55.6715" fill="#F4F5F8"/>
<path d="M115.121 48.4608H111.897V61.8557H107.167V31.3809H111.897V43.5867H115.121V31.3809H119.851V61.8557H115.121V48.4608Z" fill="#F4F5F8"/>
<path d="M134.419 55.0554C134.419 59.3162 132.953 62.224 128.391 62.224H127.596C123.074 62.224 121.484 59.3162 121.484 55.0554V38.0973C121.484 33.8787 123.116 31.0938 127.554 31.0938H128.35C132.954 31.0938 134.42 33.8787 134.42 38.057V55.0554H134.419ZM129.605 37.8526C129.605 36.2548 129.061 35.5178 127.973 35.5178C126.759 35.5178 126.299 36.296 126.299 37.8526V55.3845C126.299 56.6945 126.676 57.7184 128.014 57.7184C129.271 57.7184 129.605 56.6945 129.605 55.3845V37.8526Z" fill="#F4F5F8"/>
<path d="M148.861 55.0554C148.861 59.3162 147.396 62.224 142.832 62.224H142.037C137.516 62.224 135.926 59.3162 135.926 55.0554V38.0973C135.926 33.8787 137.558 31.0938 141.996 31.0938H142.791C147.395 31.0938 148.861 33.8787 148.861 38.057V55.0554ZM144.047 37.8526C144.047 36.2548 143.503 35.5178 142.414 35.5178C141.2 35.5178 140.74 36.296 140.74 37.8526V55.3845C140.74 56.6945 141.117 57.7184 142.457 57.7184C143.712 57.7184 144.047 56.6945 144.047 55.3845V37.8526Z" fill="#F4F5F8"/>
<path d="M154.967 31.2432V57.1122H160.789V61.8423H150.199V31.2432H154.967Z" fill="#F4F5F8"/>
</svg>
