<svg width="29" height="29" viewBox="0 0 29 29" fill="none" xmlns="http://www.w3.org/2000/svg">
<rect width="28.7178" height="29" rx="14.3589" fill="#DCF166"/>
<path d="M17.7236 19.268V20.5H10.3316C10.4756 17.892 11.7396 16.964 13.7076 15.732C14.9236 14.964 16.4116 14.132 16.4116 12.484C16.4116 11.22 15.5156 10.34 14.2196 10.34C12.5236 10.34 12.0436 11.78 12.0116 13.188H10.6356V12.884C10.6356 10.644 12.0916 9.156 14.2836 9.156C16.4276 9.156 17.8196 10.452 17.8196 12.452C17.8196 14.66 16.0916 15.716 14.4276 16.724C13.3876 17.348 12.2036 17.988 11.8996 19.268H17.7236Z" fill="#4666FF"/>
</svg>
