<svg width="632" height="122" viewBox="0 0 632 122" fill="none" xmlns="http://www.w3.org/2000/svg">
<rect x="0.768066" y="20.1001" width="628.009" height="101" rx="10" transform="rotate(-1.83412 0.768066 20.1001)" fill="#DCF166"/>
<path d="M37.0561 29.648L63.7441 98H53.6641L46.0801 77.072H17.3761L9.60007 98H6.63698e-05L26.8801 29.648H37.0561ZM43.3921 69.872L31.7761 38.288L19.9681 69.872H43.3921ZM112.074 11.696C110.826 19.376 106.026 24.944 97.6741 24.944C89.7061 24.944 84.0421 19.376 83.0821 11.696H87.9781C89.3221 16.304 92.6821 19.184 97.5781 19.184C102.57 19.184 105.642 16.304 107.178 11.696H112.074ZM70.6021 98V29.648H79.6261V87.536H79.8181L113.322 29.648H124.746V98H115.722V39.92H115.53L81.9301 98H70.6021ZM187.307 29.648V37.52H164.363V98H155.339V37.52H132.395V29.648H187.307ZM195.008 98V29.648H204.032V87.536H204.224L237.728 29.648H249.152V98H240.128V39.92H239.936L206.336 98H195.008ZM264.29 98V29.648H273.314V90.128H303.65V29.648H312.674V90.128H343.01V29.648H352.034V98H264.29ZM421.465 29.648V98H412.441V66.032H376.345V98H367.321V29.648H376.345V58.16H412.441V29.648H421.465ZM436.602 98V29.648H445.626V87.536H445.818L479.322 29.648H490.746V98H481.722V39.92H481.53L447.93 98H436.602ZM561.371 29.648L532.571 57.104L562.523 98H551.003L526.235 63.248L514.907 74V98H505.883V29.648H514.907V63.536L549.563 29.648H561.371ZM569.915 98V29.648H578.939V87.536H579.131L612.635 29.648H624.059V98H615.035V39.92H614.843L581.243 98H569.915Z" fill="#4666FF"/>
</svg>
