<svg width="412" height="133" viewBox="0 0 412 133" fill="none" xmlns="http://www.w3.org/2000/svg">
<rect x="1.99609" width="409.435" height="125.914" rx="10.9303" transform="rotate(0.908654 1.99609 0)" fill="#DCF166"/>
<path d="M185.264 74.7976V86.7383H178.638V97.7324H163.858V86.7383H141.579V73.4871L164.222 47.3487H178.638V74.7976H185.264ZM164.368 74.8705V65.2597L164.586 60.5999L152.573 75.0889C154.757 74.9433 155.631 74.8705 157.087 74.8705H164.368ZM211.982 46.7662C226.617 46.7662 233.461 59.2166 233.461 72.4678C233.461 86.1558 226.69 98.3877 211.982 98.3877C197.275 98.3877 190.358 85.8646 190.358 72.5406C190.358 56.9595 198.95 46.7662 211.982 46.7662ZM211.982 58.1972C204.41 58.1972 204.119 67.5168 204.119 73.123C204.119 82.4426 206.667 86.9567 211.982 86.9567C217.152 86.9567 219.773 82.0785 219.773 72.4678C219.773 62.7114 217.297 58.1972 211.982 58.1972ZM282.532 74.7976V86.7383H275.906V97.7324H261.126V86.7383H238.847V73.4871L261.49 47.3487H275.906V74.7976H282.532ZM261.636 74.8705V65.2597L261.854 60.5999L249.841 75.0889C252.025 74.9433 252.899 74.8705 254.355 74.8705H261.636Z" fill="#363636"/>
<path d="M176.474 21.6193C178.047 21.6193 179.301 22.1126 180.234 23.0993C181.167 24.0859 181.634 25.4126 181.634 27.0793C181.634 28.7593 181.167 30.0926 180.234 31.0793C179.314 32.0659 178.061 32.5593 176.474 32.5593C174.861 32.5593 173.581 32.0659 172.634 31.0793C171.687 30.0926 171.214 28.7593 171.214 27.0793C171.214 25.4126 171.687 24.0859 172.634 23.0993C173.594 22.1126 174.874 21.6193 176.474 21.6193ZM178.554 24.3993C178.047 23.7459 177.341 23.4193 176.434 23.4193C175.527 23.4193 174.814 23.7459 174.294 24.3993C173.774 25.0526 173.514 25.9459 173.514 27.0793C173.514 28.2393 173.774 29.1459 174.294 29.7993C174.814 30.4526 175.534 30.7793 176.454 30.7793C177.347 30.7793 178.047 30.4526 178.554 29.7993C179.074 29.1326 179.334 28.2193 179.334 27.0593C179.334 25.9259 179.074 25.0393 178.554 24.3993ZM183.349 32.2393V21.9193H185.629V30.4393H189.149V21.9193H191.429V30.4393H194.949V21.9193H197.229V32.2393H183.349ZM202.318 32.2393H199.438V21.9193H201.718V29.4393H201.778L205.638 21.9193H208.518V32.2393H206.238V24.7193H206.178L202.318 32.2393ZM220.643 27.1993C220.643 28.8126 220.19 30.1059 219.283 31.0793C218.376 32.0393 217.17 32.5193 215.663 32.5193C213.343 32.5193 211.783 31.5659 210.983 29.6593C210.636 28.8593 210.463 27.7726 210.463 26.3993C210.463 23.6926 210.896 21.6726 211.763 20.3393C212.216 19.6459 212.77 19.1326 213.423 18.7993C214.076 18.4526 214.903 18.2459 215.903 18.1793C216.023 18.1659 216.183 18.1526 216.383 18.1393C216.596 18.1259 216.743 18.1193 216.823 18.1193C216.916 18.1059 217.03 18.0926 217.163 18.0793C217.31 18.0526 217.41 18.0326 217.463 18.0193C217.53 17.9926 217.603 17.9659 217.683 17.9393C217.763 17.8993 217.823 17.8526 217.863 17.7993C217.903 17.7459 217.943 17.6859 217.983 17.6193H220.263C220.223 17.8593 220.163 18.0793 220.083 18.2793C220.016 18.4793 219.943 18.6526 219.863 18.7993C219.783 18.9459 219.663 19.0793 219.503 19.1993C219.356 19.3193 219.23 19.4193 219.123 19.4993C219.03 19.5793 218.876 19.6526 218.663 19.7193C218.45 19.7859 218.283 19.8393 218.163 19.8793C218.043 19.9059 217.85 19.9393 217.583 19.9793C217.316 20.0059 217.116 20.0259 216.983 20.0393C216.863 20.0526 216.643 20.0726 216.323 20.0993C216.016 20.1126 215.796 20.1259 215.663 20.1393C213.823 20.2859 212.616 21.5793 212.043 24.0193H212.103C212.543 23.3126 213.056 22.7859 213.643 22.4393C214.23 22.0793 215.003 21.8993 215.963 21.8993C217.296 21.8993 218.41 22.3859 219.303 23.3593C220.196 24.3326 220.643 25.6126 220.643 27.1993ZM218.363 27.1993C218.363 26.1459 218.103 25.2993 217.583 24.6593C217.076 24.0193 216.403 23.6993 215.563 23.6993C214.723 23.6993 214.043 24.0193 213.523 24.6593C213.016 25.2859 212.763 26.1326 212.763 27.1993C212.763 28.2659 213.016 29.1193 213.523 29.7593C214.043 30.3993 214.723 30.7193 215.563 30.7193C216.403 30.7193 217.076 30.3993 217.583 29.7593C218.103 29.1193 218.363 28.2659 218.363 27.1993ZM232.018 32.2393H229.258L226.018 27.6193L224.658 29.0393V32.2393H222.378V21.9193H224.658V26.4993L228.778 21.9193H231.558L227.538 26.0593L232.018 32.2393ZM232.821 25.0993C233.061 22.7659 234.567 21.5993 237.341 21.5993C238.634 21.5993 239.661 21.8526 240.421 22.3593C241.194 22.8659 241.581 23.6526 241.581 24.7193V29.9593C241.581 30.2526 241.614 30.4526 241.681 30.5593C241.761 30.6659 241.907 30.7193 242.121 30.7193C242.281 30.7193 242.454 30.7059 242.641 30.6793V32.2793C242.054 32.4259 241.561 32.4993 241.161 32.4993C240.187 32.4993 239.627 32.0859 239.481 31.2593C238.614 32.0859 237.407 32.4993 235.861 32.4993C234.794 32.4993 233.947 32.2259 233.321 31.6793C232.694 31.1193 232.381 30.3659 232.381 29.4193C232.381 29.1259 232.414 28.8526 232.481 28.5993C232.547 28.3459 232.621 28.1259 232.701 27.9393C232.794 27.7526 232.934 27.5793 233.121 27.4193C233.321 27.2593 233.481 27.1259 233.601 27.0193C233.734 26.9126 233.941 26.8126 234.221 26.7193C234.514 26.6259 234.727 26.5593 234.861 26.5193C235.007 26.4659 235.254 26.4126 235.601 26.3593C235.947 26.3059 236.174 26.2726 236.281 26.2593C236.401 26.2326 236.641 26.1993 237.001 26.1593C237.814 26.0526 238.367 25.9659 238.661 25.8993C238.954 25.8193 239.154 25.7059 239.261 25.5593C239.354 25.4526 239.401 25.2059 239.401 24.8193C239.401 23.7793 238.694 23.2593 237.281 23.2593C236.534 23.2593 235.987 23.3993 235.641 23.6793C235.294 23.9593 235.074 24.4326 234.981 25.0993H232.821ZM239.381 27.0593C239.207 27.1526 239.007 27.2393 238.781 27.3193C238.554 27.3859 238.367 27.4326 238.221 27.4593C238.087 27.4726 237.867 27.4993 237.561 27.5393C237.267 27.5793 237.074 27.6059 236.981 27.6193C236.701 27.6593 236.481 27.6993 236.321 27.7393C236.161 27.7659 235.961 27.8193 235.721 27.8993C235.494 27.9793 235.314 28.0793 235.181 28.1993C235.061 28.3059 234.954 28.4593 234.861 28.6593C234.767 28.8459 234.721 29.0726 234.721 29.3393C234.721 29.8326 234.881 30.2126 235.201 30.4793C235.534 30.7459 235.994 30.8793 236.581 30.8793C237.594 30.8793 238.374 30.6059 238.921 30.0593C239.227 29.7526 239.381 29.1593 239.381 28.2793V27.0593ZM246.774 29.5393V32.2393H244.054V29.5393H246.774ZM246.774 22.0193V24.7193H244.054V22.0193H246.774ZM253.7 17.8993C252.887 19.4459 252.28 20.9259 251.88 22.3393C251.48 23.7393 251.28 25.3126 251.28 27.0593C251.28 30.1393 252.094 33.1393 253.72 36.0593H251.88C250.907 34.4726 250.18 33.0059 249.7 31.6593C249.234 30.3126 249 28.7926 249 27.0993C249 23.7126 249.96 20.6459 251.88 17.8993H253.7Z" fill="#363636"/>
</svg>
