<svg width="680" height="137" viewBox="0 0 680 137" fill="none" xmlns="http://www.w3.org/2000/svg">
<rect y="10.5068" width="677.981" height="125.914" rx="10.9303" transform="rotate(-0.887971 0 10.5068)" fill="#DCF166"/>
<path d="M51.7588 80.9551C36.3233 80.9551 30.4258 74.7663 30.4258 60.6414V47.8999H46.2253V58.4571C46.2253 64.7915 47.3903 68.5776 53.2878 68.5776C55.6177 68.5776 59.1125 67.8495 59.8406 67.4854V47.8999H75.6401V99.7397H59.8406V79.7173C58.9669 80.1542 53.215 80.9551 51.7588 80.9551ZM126.947 47.8999V60.4958H99.6437V66.9758H124.399V78.9892H99.6437V86.5613H127.675V99.7397H83.9898V47.8999H126.947ZM120.176 33.7021V43.7498H107.434V33.7021H120.176ZM103.503 33.7021V43.7498H90.6882V33.7021H103.503ZM175.808 61.2239V99.7397H159.863V47.8999H198.816V61.2239H175.808ZM229.128 46.5165C244.636 46.5165 255.048 57.5106 255.048 73.8198C255.048 90.0562 244.563 100.977 228.982 100.977C213.11 100.977 202.48 90.129 202.48 73.747C202.48 57.2922 213.037 46.5165 229.128 46.5165ZM228.909 59.258C222.502 59.258 218.643 64.6459 218.643 73.5286C218.643 82.7753 222.429 88.0903 228.982 88.0903C235.462 88.0903 238.957 82.9209 238.957 73.0917C238.957 64.4275 235.244 59.258 228.909 59.258ZM262.03 47.8999H288.168C296.76 47.8999 306.589 50.1569 306.589 60.8598C306.589 65.9565 304.041 68.9416 300.109 71.2715C305.934 73.3101 309.137 77.3146 309.137 84.013C309.137 96.1721 299.381 99.7397 289.261 99.7397H262.03V47.8999ZM277.466 59.6949V67.7039H286.421C289.406 67.7039 291.226 66.2477 291.226 63.7722C291.226 61.0783 289.406 59.6949 285.693 59.6949H277.466ZM277.466 77.6787V87.4351H287.295C291.299 87.4351 293.338 85.8333 293.338 82.6297C293.338 79.4261 291.226 77.6787 287.295 77.6787H277.466ZM341.043 46.5165C356.551 46.5165 366.963 57.5106 366.963 73.8198C366.963 90.0562 356.479 100.977 340.897 100.977C325.025 100.977 314.395 90.129 314.395 73.747C314.395 57.2922 324.952 46.5165 341.043 46.5165ZM340.825 59.258C334.417 59.258 330.559 64.6459 330.559 73.5286C330.559 82.7753 334.345 88.0903 340.897 88.0903C347.377 88.0903 350.872 82.9209 350.872 73.0917C350.872 64.4275 347.159 59.258 340.825 59.258ZM373.872 47.8999H396.443C407.801 47.8999 419.087 51.1763 419.087 66.3205C419.087 78.2611 410.714 83.7218 399.574 83.7218H389.672V99.7397H373.872V47.8999ZM389.672 60.6414V71.6355H397.317C401.176 71.6355 403.87 70.3978 403.87 66.1749C403.87 62.4616 401.685 60.6414 397.026 60.6414H389.672ZM471.953 47.8999V99.7397H456.809V80.227C456.809 76.9506 456.955 70.5434 457.246 67.4854L442.174 99.7397H425.137V47.8999H440.354V67.5582C440.354 70.5434 440.209 76.0041 439.99 79.8629L454.989 47.8999H471.953ZM480.384 99.7397V47.8999H495.965V86.2701H508.197V47.8999H523.851V86.2701H536.083V47.8999H551.664V99.7397H480.384ZM575.962 47.8999V64.0634H584.772C598.897 64.0634 605.231 70.689 605.231 81.5375C605.231 92.7501 598.023 99.7397 583.825 99.7397H560.089V47.8999H575.962ZM575.962 75.8585V87.3622H583.243C586.665 87.3622 589.795 86.1973 589.795 81.6832C589.795 77.2418 587.102 75.8585 583.316 75.8585H575.962ZM608.296 65.1556C608.879 53.3605 616.305 46.6621 628.61 46.6621C638.658 46.6621 647.686 51.9043 647.686 62.316C647.686 68.2135 644.701 71.1259 639.677 73.747C636.328 75.4944 633.779 76.2953 633.779 80.4454V81.1735H620.455V80.4454C620.455 74.0382 620.965 70.3978 627.299 67.4854C629.702 66.3933 632.25 65.5196 632.25 62.3888C632.25 60.2774 630.649 58.8212 628.246 58.8212C624.169 58.8212 623.368 61.8063 623.368 65.1556H608.296ZM634.435 84.8139V99.7397H619.582V84.8139H634.435Z" fill="#363636"/>
</svg>
